<svg width="50" height="50" viewBox="0 0 50 50" fill="none" xmlns="http://www.w3.org/2000/svg">
<path d="M5 45V40.7143C5 39.7301 5.25398 38.8329 5.76191 38.0229C6.26984 37.2127 6.96827 36.586 7.85715 36.1429C9.50795 35.3174 11.2146 34.6825 12.9771 34.2381C14.7397 33.7936 16.5403 33.5714 18.3791 33.5714C20.2203 33.5714 22.0223 33.7936 23.7848 34.2381C25.5473 34.6825 27.2375 35.3174 28.8553 36.1429C29.7124 36.5872 30.395 37.2145 30.9028 38.0247C31.4108 38.8349 31.6648 39.7314 31.6648 40.7143V45H5ZM35.4762 45V40.2381C35.4762 39.0317 35.1664 37.9047 34.5467 36.8572C33.9271 35.8095 33.1575 34.8888 32.2382 34.0952C33.254 34.3492 34.2623 34.6272 35.2628 34.9295C36.2635 35.2317 37.2235 35.6202 38.1428 36.0952C38.9683 36.5397 39.6826 37.1111 40.2857 37.8095C40.8889 38.5079 41.1905 39.3174 41.1905 40.2381V45H35.4762ZM18.3333 31.6666C16.4921 31.6666 14.9207 31.0158 13.619 29.7143C12.3175 28.4127 11.6667 26.8413 11.6667 25C11.6667 23.1587 12.3175 21.5872 13.619 20.2857C14.9207 18.9841 16.4921 18.3333 18.3333 18.3333C20.1746 18.3333 21.746 18.9841 23.0476 20.2857C24.3492 21.5872 25 23.1587 25 25C25 26.8413 24.3492 28.4127 23.0476 29.7143C21.746 31.0158 20.1746 31.6666 18.3333 31.6666ZM34.5239 25C34.5239 26.8413 33.873 28.4127 32.5714 29.7143C31.2699 31.0158 29.6985 31.6666 27.8571 31.6666C27.6032 31.6666 27.3733 31.6584 27.1676 31.6418C26.9619 31.6254 26.7473 31.586 26.5239 31.5238C27.3175 30.6031 27.8971 29.5872 28.2628 28.4761C28.6286 27.365 28.8108 26.2063 28.8096 25C28.8096 23.7936 28.6267 22.6349 28.261 21.5238C27.8953 20.4127 27.3162 19.3968 26.5239 18.4761C26.746 18.4127 26.9607 18.3733 27.1676 18.3581C27.3746 18.3429 27.6044 18.3345 27.8571 18.3333C29.6985 18.3333 31.2699 18.9841 32.5714 20.2857C33.873 21.5872 34.5239 23.1587 34.5239 25ZM36.4286 22.1429C36.4286 19.7619 35.595 17.7377 33.9276 16.0704C32.2603 14.4032 30.2369 13.5702 27.8571 13.5714C30.2382 13.5714 32.2623 12.7378 33.9296 11.0705C35.5969 9.40316 36.4299 7.37968 36.4286 5C36.4286 7.38095 37.2623 9.40507 38.9296 11.0724C40.5969 12.7397 42.6203 13.5727 45 13.5714C42.6191 13.5714 40.595 14.4051 38.9276 16.0724C37.2603 17.7397 36.4273 19.7631 36.4286 22.1429Z" fill="#00D8FF"/>
</svg>
