<svg width="50" height="50" viewBox="0 0 50 50" fill="none" xmlns="http://www.w3.org/2000/svg">
<path d="M20.8041 28.011L35.2099 13.6052M17.3076 21.7174L21.224 17.801M25.4198 13.6052L32.4127 6.6123M35.9093 21.2975L42.203 15.0038M28.2171 28.9897L31.7134 25.4934M24.9999 41.9969L45 21.9968M15.8628 22.7252L18.4271 30.6175H26.7255L20.012 35.4952L22.5763 43.3875L15.8628 38.5098L9.14921 43.3875L11.7136 35.4952L5 30.6175H13.2984L15.8628 22.7252ZM23.0305 15.0038L23.1221 15.2857H23.4185L23.1787 15.4599L23.2703 15.7418L23.0305 15.5676L22.7908 15.7418L22.8823 15.4599L22.6426 15.2857H22.9389L23.0305 15.0038ZM34.3357 23.1039L34.4272 23.3858H34.7236L34.4838 23.56L34.5754 23.8419L34.3357 23.6677L34.0959 23.8419L34.1875 23.56L33.9477 23.3858H34.2441L34.3357 23.1039Z" stroke="#2051A5" stroke-width="2.5" stroke-linejoin="round"/>
</svg>
